<svg xmlns="http://www.w3.org/2000/svg" viewBox="0 0 120 120" fill="none">
  <circle cx="60" cy="60" r="52" fill="#1B4D2E" stroke="#B5935A" stroke-width="4"/>
  <path d="M60 14 72 28 68 44 52 44 48 28Z" fill="#0a0a0a" stroke="#B5935A" stroke-width="2" stroke-linejoin="round"/>
  <path d="M48 28 36 38 40 54 52 44Z" fill="#1B4D2E" stroke="#B5935A" stroke-width="2" stroke-linejoin="round"/>
  <path d="M72 28 84 38 80 54 68 44Z" fill="#1B4D2E" stroke="#B5935A" stroke-width="2" stroke-linejoin="round"/>
  <path d="M40 54 52 44 68 44 80 54 76 70 44 70Z" fill="#0a0a0a" stroke="#B5935A" stroke-width="2" stroke-linejoin="round"/>
  <path d="M44 70 36 82 48 92 60 86 72 92 84 82 76 70Z" fill="#1B4D2E" stroke="#B5935A" stroke-width="2" stroke-linejoin="round"/>
  <path d="M48 92 60 106 72 92 60 86Z" fill="#0a0a0a" stroke="#B5935A" stroke-width="2" stroke-linejoin="round"/>
  <defs>
    <pattern id="arrow-stripes" width="1" height="6" patternUnits="userSpaceOnUse">
      <rect width="1" height="2" fill="#fff"/>
      <rect y="2" width="1" height="2" fill="#1D4ED8"/>
      <rect y="4" width="1" height="2" fill="#DC2626"/>
    </pattern>
  </defs>
  <path d="M18 88 30 72 24 58 38 48 34 34 52 26 58 38 72 30 88 18" stroke="url(#arrow-stripes)" stroke-width="10" stroke-linecap="round" stroke-linejoin="round"/>
  <path d="M18 88 30 72 24 58 38 48 34 34 52 26 58 38 72 30 88 18" stroke="#B5935A" stroke-width="2.5" stroke-linecap="round" stroke-linejoin="round"/>
  <path d="M88 18 104 10 96 26Z" fill="#B5935A"/>
  <path d="M100 22 108 16 104 28Z" fill="#B5935A"/>
</svg>
